<?xml version="1.0" encoding="UTF-8"?>
<!DOCTYPE svg PUBLIC "-//W3C//DTD SVG 1.1//EN" "http://www.w3.org/Graphics/SVG/1.1/DTD/svg11.dtd">
<!-- Creator: CorelDRAW X8 -->
<svg xmlns="http://www.w3.org/2000/svg" xml:space="preserve" width="0.319252in" height="0.194429in" version="1.1" style="shape-rendering:geometricPrecision; text-rendering:geometricPrecision; image-rendering:optimizeQuality; fill-rule:evenodd; clip-rule:evenodd"
viewBox="0 0 49 30"
 xmlns:xlink="http://www.w3.org/1999/xlink">
 <defs>
  <style type="text/css">
   <![CDATA[
    .fil0 {fill:#1D4ED8}
   ]]>
  </style>
 </defs>
 <g id="Layer_x0020_1">
  <metadata id="CorelCorpID_0Corel-Layer"/>
  <g id="_666122784">
   <path class="fil0" d="M13 3c1,-2 3,-3 4,-3 2,0 4,0 5,1 2,1 3,3 3,4 0,2 0,3 -1,5l-12 17c-1,1 -3,2 -5,3 -1,0 -3,-1 -4,-1 -2,-1 -3,-3 -3,-5 0,-1 0,-3 1,-4l12 -17 0 0z"/>
   <path class="fil0" d="M31 3c1,-2 3,-3 5,-3 1,0 3,0 4,1 2,1 3,3 3,4 0,2 0,4 -1,5l-12 17c-1,2 -3,2 -4,3 -2,0 -4,0 -5,-1 -2,-1 -3,-3 -3,-4 0,-2 0,-4 1,-5l12 -17 0 0z"/>
   <path class="fil0" d="M43 29c1,0 3,0 4,-2 1,-1 2,-2 2,-4 0,-2 -1,-3 -2,-4 -1,-2 -3,-2 -4,-2 -2,0 -4,0 -5,2 -1,1 -2,2 -2,4 0,2 1,3 2,4 1,2 3,2 5,2z"/>
  </g>
 </g>
</svg>
