<?xml version="1.0" encoding="UTF-8"?>
<!DOCTYPE svg PUBLIC "-//W3C//DTD SVG 1.1//EN" "http://www.w3.org/Graphics/SVG/1.1/DTD/svg11.dtd">
<!-- Creator: CorelDRAW X8 -->
<svg xmlns="http://www.w3.org/2000/svg" xml:space="preserve" width="0.426976in" height="0.363181in" version="1.1" style="shape-rendering:geometricPrecision; text-rendering:geometricPrecision; image-rendering:optimizeQuality; fill-rule:evenodd; clip-rule:evenodd"
viewBox="0 0 47 40"
 xmlns:xlink="http://www.w3.org/1999/xlink">
 <defs>
  <style type="text/css">
   <![CDATA[
    .fil0 {fill:#FEFEFE}
    .fil1 {fill:#00401D}
   ]]>
  </style>
 </defs>
 <g id="Layer_x0020_1">
  <metadata id="CorelCorpID_0Corel-Layer"/>
  <rect class="fil0" width="47.3171" height="40.2474" rx="3" ry="3"/>
  <g id="_784410512">
   <path class="fil1" d="M7 33c0,-1 0,-5 0,-7l0 -13c0,-4 -1,-6 1,-6l31 0c1,0 1,1 1,1 0,4 1,22 0,25l-33 0zm0 -28c-3,0 -3,3 -3,6l0 17c0,9 0,7 19,7 2,0 16,1 17,0 3,0 3,-3 3,-6l0 -17c0,-9 1,-7 -19,-7 -2,0 -15,0 -17,0z"/>
   <path class="fil1" d="M10 30l28 0 0 -9c-1,0 -8,-7 -9,-8l-10 10c-1,0 -2,-2 -3,-3l-4 4c-3,3 -2,1 -2,6z"/>
   <path class="fil1" d="M13 10c-5,1 -4,8 1,8 5,-1 4,-9 -1,-8z"/>
  </g>
 </g>
</svg>
